<svg width="24" height="24" viewBox="0 0 48 48" fill="none" stroke="currentColor"><path fill-rule="evenodd" clip-rule="evenodd" d="M43 42a1 1 0 011 1v2a1 1 0 01-1 1H29a1 1 0 01-1-1v-2a1 1 0 011-1h14zM24.05 26a1 1 0 01.993.883l.007.117v2a1 1 0 01-.884.993L24.05 30H16c-3.73 0-6.86 2.55-7.75 6a8.294 8.294 0 00-.24 1.588L8 38v2h16.05a1 1 0 01.993.883l.007.117v2a1 1 0 01-.884.993L24.05 44H6a2.003 2.003 0 01-1.994-1.85L4 42v-4c0-6.525 5.206-11.834 11.695-11.996L16 26h8.05zM43 34a1 1 0 011 1v2a1 1 0 01-1 1H29a1 1 0 01-1-1v-2a1 1 0 011-1h14zm0-8a1 1 0 011 1v2a1 1 0 01-1 1H29a1 1 0 01-1-1v-2a1 1 0 011-1h14zM21 3c5.52 0 10 4.477 10 10s-4.48 10-10 10-10-4.477-10-10S15.48 3 21 3zm0 4c-3.31 0-6 2.686-6 6s2.69 6 6 6 6-2.686 6-6-2.69-6-6-6z" fill="currentColor"/></svg>