<svg width="48" height="48" viewBox="0 0 32 32" fill="currentColor"><path fill-rule="evenodd" clip-rule="evenodd" d="M25.947 7.967a.835.835 0 00-1.17-.764L6.378 15.28a.665.665 0 01-.534-1.218l18.397-8.077a2.165 2.165 0 013.035 1.982v15.508a2.165 2.165 0 01-2.952 2.017L5.87 18.29a.665.665 0 01.484-1.239l18.455 7.202a.835.835 0 001.138-.778V7.967z" fill="currentColor"/><path fill-rule="evenodd" clip-rule="evenodd" d="M18.407 23.399a4.665 4.665 0 01-8.672-3.444l.038-.096a.665.665 0 111.236.491l-.038.096a3.335 3.335 0 006.2 2.462l.037-.096a.665.665 0 011.237.491l-.038.096zM5.734 11.306c.368 0 .665.297.665.665v8.5a.665.665 0 01-1.33 0v-8.5c0-.368.298-.665.665-.665z" fill="currentColor"/></svg>