<svg width="48" height="48" viewBox="0 0 28 28" fill="currentColor"><path fill-rule="evenodd" clip-rule="evenodd" d="M16.333 5.333a6 6 0 00-3.246 11.047c-2.308.562-4.32 1.746-6.025 3.548a2.667 2.667 0 00-.729 1.832v1.073l.006.165a2.5 2.5 0 002.494 2.335h7.642l.099-.007A.667.667 0 0016.475 24H8.833l-.127-.007a1.167 1.167 0 01-1.04-1.16V21.76l.009-.145c.031-.287.156-.558.356-.77 2.217-2.346 4.988-3.512 8.354-3.512h.026a6 6 0 00-.078-12zm0 1.334a4.667 4.667 0 110 9.333 4.667 4.667 0 010-9.333zm8.714 12.214a.667.667 0 00-1.008-.868l-4.1 4.1-2.138-2.139-.075-.064a.667.667 0 00-.868 1.007l2.61 2.61a.667.667 0 00.943 0l4.571-4.571.065-.075z" fill="currentColor"/></svg>