<svg width="24" height="24" viewBox="0 0 48 48" fill="currentColor"><path fill-rule="evenodd" clip-rule="evenodd" d="M23.5 5C33.717 5 42 13.283 42 23.5c0 4.388-1.528 8.42-4.08 11.59l5.808 5.81a1 1 0 010 1.414l-1.414 1.414a1 1 0 01-1.414 0l-5.81-5.808A18.422 18.422 0 0123.5 42C13.283 42 5 33.717 5 23.5S13.283 5 23.5 5zm0 4C15.492 9 9 15.492 9 23.5S15.492 38 23.5 38 38 31.508 38 23.5 31.508 9 23.5 9zm7.832 6.391l1.732 1a1 1 0 01.366 1.366l-5.5 9.526a1 1 0 01-1.261.419l-.105-.053-5.196-3-4 6.928a1 1 0 01-1.366.366l-1.732-1a1 1 0 01-.366-1.366l5.5-9.526a1 1 0 011.366-.366l5.196 3 4-6.928a1 1 0 011.366-.366z" fill="currentColor"/></svg>