<svg width="24" height="24" viewBox="0 0 36 36" fill="none"><path d="M18 36C8.06 36 0 27.94 0 18S8.06 0 18 0s18 8.06 18 18-8.06 18-18 18z" fill="url(#svg_0d83078816__paint0_linear_0:672)"/><path fill-rule="evenodd" clip-rule="evenodd" d="M10 11a1 1 0 00-1 1v13a1 1 0 001 1h16a1 1 0 001-1V12a1 1 0 00-1-1H10zm2.229 8.66a.2.2 0 01.038-.281l4.074-3.063a.2.2 0 01.25.007l2.357 1.99a.2.2 0 00.253.006l3.252-2.54a.2.2 0 01.277.03l.994 1.194a.2.2 0 01-.029.285l-4.497 3.57a.2.2 0 01-.25 0l-2.438-1.979a.2.2 0 00-.245-.005l-2.807 2.066a.2.2 0 01-.277-.039l-.952-1.24z" fill="#fff"/><defs><linearGradient id="svg_0d83078816__paint0_linear_0:672" x1="-6.786" y1="21.575" x2="20.433" y2="43.68" gradientUnits="userSpaceOnUse"><stop stop-color="#599AFF"/><stop offset="1" stop-color="#3D89FF"/></linearGradient></defs></svg>