<svg width="24" height="24" viewBox="0 0 36 36" fill="none"><circle cx="18" cy="18" r="18" fill="url(#svg_2b62ab03ed__paint0_linear_0:735)"/><path fill-rule="evenodd" clip-rule="evenodd" d="M16.677 8.55c.073.666-.154 1.497-.547 2.526-.981 2.573-5.63 3.229-5.63 9.993 0 .36.049.676.126.964.362 3.35 3.404 5.967 7.101 5.967 3.943 0 7.39-3.426 7.704-7 .223-2.54.003-4.697-2.106-6.561l-.432.203a3.888 3.888 0 01-.448 1.743 3.58 3.58 0 01-.26.408c-.025.037-.05.073-.079.108a3.773 3.773 0 01-.277.312c-.04.04-.078.082-.121.122-.098.09-.201.176-.308.257-.035.026-.074.051-.11.077-.096.067-.193.13-.293.19l-.128.075c-.146.08-.298.158-.465.23.091-.177.172-.362.247-.552.02-.05.036-.101.055-.152.056-.153.106-.308.15-.465l.039-.145c.051-.2.095-.404.127-.614l.003-.012a7.227 7.227 0 00-.054-2.423c-.345-1.79-1.425-3.791-3.448-5.678l-.846.427z" fill="#fff"/><ellipse cx="17.188" cy="8.5" rx=".512" ry=".5" fill="#fff"/><path fill-rule="evenodd" clip-rule="evenodd" d="M23.373 14.515a.25.25 0 10-.457.204l.457-.204z" fill="#fff"/><circle cx="18" cy="18" r="18" fill="url(#svg_2b62ab03ed__paint1_linear_0:735)"/><path fill-rule="evenodd" clip-rule="evenodd" d="M22.216 12.662c2.09 1.93 3.284 4.69 3.284 7.586C25.5 24.53 22.142 28 18 28c-4.142 0-7.5-3.47-7.5-7.752 0-5.768 6.427-7.844 6.427-12.248.191.048.38.108.563.18 2.421.95 3.773 5.44 2.854 7.942a4.395 4.395 0 001.872-3.46z" fill="#fff"/><defs><linearGradient id="svg_2b62ab03ed__paint0_linear_0:735" x1="-8.128" y1="18.956" x2="19.654" y2="44.109" gradientUnits="userSpaceOnUse"><stop stop-color="#FF8585"/><stop offset="1" stop-color="#FF5E5E"/></linearGradient><linearGradient id="svg_2b62ab03ed__paint1_linear_0:735" x1="-8.128" y1="18.956" x2="19.654" y2="44.109" gradientUnits="userSpaceOnUse"><stop stop-color="#FF8585"/><stop offset="1" stop-color="#FF5E5E"/></linearGradient></defs></svg>