<svg viewBox="0 0 48 48" fill="none" stroke="currentColor" stroke-width="4"><path d="M41 26V9a2 2 0 00-2-2H9a2 2 0 00-2 2v30a2 2 0 002 2h17" stroke="#4E5969" stroke-width="4" stroke-linecap="square"/><path d="M24 33l9-8.5V27s-2 1-3.5 2.5C27.841 31.159 27 33 27 33h-3zm0 0l-3.5-4.5L17 33h7z" stroke="#4E5969" stroke-width="4" stroke-linecap="square"/><path d="M20.5 28.5L17 33h7l-3.5-4.5zM33 24.5L24 33h3s.841-1.841 2.5-3.5C31 28 33 27 33 27v-2.5zM46 38a8 8 0 11-16 0 8 8 0 0116 0z" fill="#4E5969"/><path d="M41.92 34.088l-3.916 3.916-3.916 3.916M34.088 34.088l3.916 3.916 3.916 3.916" stroke="#fff" stroke-width="2.462"/><path d="M17 15h-2v2h2v-2z" stroke="#4E5969" stroke-width="4" stroke-linecap="square"/></svg>