<svg t="1695608082249" class="icon" viewBox="0 0 1024 1024" version="1.1" xmlns="http://www.w3.org/2000/svg" p-id="9472"
  width="48" height="48">
  <path d="M512 512m-512 0a512 512 0 1 0 1024 0 512 512 0 1 0-1024 0Z" fill="#737BF2" p-id="9473"></path>
  <path
    d="M726.528 506.432V289.408H323.008v217.024h-33.6v220.352c0 16.64 13.376 30.08 26.88 30.08h413.696c16.768 0 26.88-13.44 26.88-26.624V506.432h-30.336zM356.16 512h333.952V356.16H356.16V512z m22.272-89.024h267.136v-44.544H378.432v44.544z m0 66.752h267.136v-44.48H378.432v44.48z"
    fill="#FFFFFF" p-id="9474"></path>
</svg>