<svg t="1684652775796" class="icon" viewBox="0 0 1024 1024" version="1.1" xmlns="http://www.w3.org/2000/svg" p-id="2079" width="200" height="200"><path d="M0 0m349.090909 0l325.818182 0q349.090909 0 349.090909 349.090909l0 325.818182q0 349.090909-349.090909 349.090909l-325.818182 0q-349.090909 0-349.090909-349.090909l0-325.818182q0-349.090909 349.090909-349.090909Z" fill="#3271FD" p-id="2080"></path><path d="M718.661818 232.727273a22.341818 22.341818 0 0 1 22.283637 20.677818l0.058181 1.664 0.011637 328.145454a61.463273 61.463273 0 0 1 0 114.501819l-0.011637 71.214545a22.341818 22.341818 0 0 1-44.625454 1.664l-0.058182-1.664v-71.214545a61.463273 61.463273 0 0 1 0-114.501819v-328.145454c0-12.334545 10.007273-22.341818 22.341818-22.341818z m-424.494545 0a22.341818 22.341818 0 0 1 22.283636 20.677818l0.058182 1.664v328.145454a61.463273 61.463273 0 0 1 0 114.501819v71.214545a22.341818 22.341818 0 0 1-44.625455 1.664l-0.058181-1.664-0.011637-71.214545a61.463273 61.463273 0 0 1 0-114.501819l0.011637-328.145454c0-12.334545 10.007273-22.341818 22.341818-22.341818z m212.247272 0a22.341818 22.341818 0 0 1 22.283637 20.677818l0.058182 1.664v81.221818a83.816727 83.816727 0 0 1 0 161.512727v271.127273a22.341818 22.341818 0 0 1-44.625455 1.664l-0.058182-1.664v-271.127273a83.816727 83.816727 0 0 1 0-161.512727v-81.221818c0-12.334545 10.007273-22.341818 22.341818-22.341818z" fill="#FFFFFF" p-id="2081"></path></svg>