<svg t="1684652747690" class="icon" viewBox="0 0 1024 1024" version="1.1" xmlns="http://www.w3.org/2000/svg" p-id="1922" width="200" height="200"><path d="M0 0m349.090909 0l325.818182 0q349.090909 0 349.090909 349.090909l0 325.818182q0 349.090909-349.090909 349.090909l-325.818182 0q-349.090909 0-349.090909-349.090909l0-325.818182q0-349.090909 349.090909-349.090909Z" fill="#52B852" p-id="1923"></path><path d="M269.346909 581.236364c-3.584-33.338182-2.338909-65.931636 11.52-101.969455 16.279273-43.869091 46.650182-76.241455 85.655273-101.969454 59.112727-39.924364 124.672-63.220364 192.616727-78.650182A727.528727 727.528727 0 0 1 726.644364 279.272727c12.648727 0 22.690909 2.443636 27.729454 15.429818 5.015273 13.009455 0 21.818182-8.843636 30.894546-27.729455 29.672727-37.806545 67.153455-46.650182 105.879273-11.252364 46.312727-22.737455 94.103273-35.188364 140.683636-3.816727 15.429818-12.660364 29.649455-18.920727 43.869091-37.771636 72.285091-99.490909 105.890909-176.314182 114.967273-36.631273 3.898182-72.96 1.198545-107.182545-14.231273a219.857455 219.857455 0 0 1-32.779637-19.374546c-7.68 19.374545-15.069091 38.749091-26.58909 41.192728a24.005818 24.005818 0 0 1-26.554182-14.219637c-1.163636-3.909818-3.816727-10.309818-2.373818-14.219636 5.015273-29.684364 12.683636-43.869091 17.710545-52.945455 30.370909-61.742545 69.154909-101.213091 116.514909-148.282181 16.965818-16.64 58.612364-50.734545 95.243636-69.841455-61.521455 16.896-123.950545 49.512727-187.35709 106.344727-25.611636 23.051636-39.959273 40.704-43.054546 48.791273l-2.653091-12.986182h-0.034909z" fill="#FFFFFF" p-id="1924"></path></svg>