<svg t="1698157076164" class="icon" viewBox="0 0 1024 1024" version="1.1" xmlns="http://www.w3.org/2000/svg" p-id="26344" width="200" height="200"><path d="M883.2 64a76.8 76.8 0 0 1 76.7488 73.92L960 140.8v742.4a76.8 76.8 0 0 1-73.92 76.7488L883.2 960H140.8a76.8 76.8 0 0 1-76.7488-73.92L64 883.2V140.8a76.8 76.8 0 0 1 73.92-76.7488L140.8 64h742.4zM546.1376 307.2h-76.8a38.4 38.4 0 0 0-38.336 36.1472l-0.064 2.2528v192h153.6V345.6a38.4 38.4 0 0 0-36.1344-38.336L546.1376 307.2z" fill="#6B57FE" p-id="26345"></path><path d="M323.5328 546.432l165.6704 174.0288a25.6 25.6 0 0 0 36.1856 0.896l0.896-0.896 165.6704-174.0416A12.8 12.8 0 0 0 682.688 524.8H332.8a12.8 12.8 0 0 0-9.2672 21.632z" fill="#FFBA00" p-id="26346"></path></svg>