<svg t="1645003476579" class="icon" viewBox="0 0 1024 1024" version="1.1" xmlns="http://www.w3.org/2000/svg" p-id="5966"
  width="200" height="200">
  <path
    d="M876.245333 478.890667H427.712c-64.576 0-144.661333 36.650667-186.496 86.250666l-174.122667 204.586667-2.602666 3.136c0-4.117333-0.490667-8.768-0.490667-12.906667v-496a116.16 116.16 0 0 1 115.712-115.733333h165.333333a116.202667 116.202667 0 0 1 115.733334 115.733333v16.490667H760.533333a116.224 116.224 0 0 1 115.733334 115.754667v82.688h-0.021334z m70.613334 129.173333l-153.898667 199.296c-61.952 73.642667-170.432 68.330667-215.893333 68.330667H146.645333c-18.602667 0-44.970667-5.696-44.970666-28.928 0-12.416 7.744-24.789333 16.042666-34.090667l173.589334-204.608c29.973333-35.136 90.965333-63.04 136.405333-63.04h490.24c18.602667 0 42.048 5.674667 42.048 28.928-0.042667 10.986667-4.928 20.352-13.12 34.112z"
    p-id="5967" fill="#FF7D00"></path>
</svg>