<svg t="1684562960810" class="icon" viewBox="0 0 1024 1024" version="1.1" xmlns="http://www.w3.org/2000/svg" p-id="2299" width="200" height="200"><path d="M512 0c282.7776 0 512 229.2224 512 512S794.7776 1024 512 1024 0 794.7776 0 512 229.2224 0 512 0" fill="#FF0808" p-id="2300"></path><path d="M624.1664 538.5856C703.6032 538.5856 768 602.9824 768 682.432A72.7808 72.7808 0 0 1 695.2192 755.2H328.7808A72.7808 72.7808 0 0 1 256 682.432c0-79.4368 64.3968-143.8464 143.8464-143.8464zM512 243.2c70.6944 0 128 57.3056 128 128s-57.3056 128-128 128-128-57.3056-128-128 57.3056-128 128-128z" fill="#FFFFFF" p-id="2301"></path></svg>