<svg t="1684652927115" class="icon" viewBox="0 0 1024 1024" version="1.1" xmlns="http://www.w3.org/2000/svg" p-id="2556" width="200" height="200"><path d="M0 0m349.090909 0l325.818182 0q349.090909 0 349.090909 349.090909l0 325.818182q0 349.090909-349.090909 349.090909l-325.818182 0q-349.090909 0-349.090909-349.090909l0-325.818182q0-349.090909 349.090909-349.090909Z" fill="#62A8FC" p-id="2557"></path><path d="M751.371636 631.691636A39.901091 39.901091 0 0 1 791.272727 671.581091v79.790545A39.901091 39.901091 0 0 1 751.371636 791.272727H272.64A39.901091 39.901091 0 0 1 232.727273 751.371636v-79.790545a39.901091 39.901091 0 0 1 39.901091-39.889455H751.36z m-19.944727 79.790546H571.845818a19.944727 19.944727 0 0 0-3.595636 39.575273l3.595636 0.314181h159.581091a19.944727 19.944727 0 0 0 0-39.889454z m19.944727-279.272727A39.901091 39.901091 0 0 1 791.272727 472.087273v79.802182a39.901091 39.901091 0 0 1-39.901091 39.889454H272.64A39.901091 39.901091 0 0 1 232.727273 551.912727V472.087273a39.901091 39.901091 0 0 1 39.901091-39.889455H751.36z m-418.909091 79.790545h-39.889454a19.944727 19.944727 0 0 0-3.595636 39.575273l3.595636 0.325818h39.889454a19.944727 19.944727 0 1 0 0-39.901091z m199.482182 0H412.276364a19.944727 19.944727 0 0 0-3.595637 39.575273l3.595637 0.325818h119.68a19.944727 19.944727 0 1 0 0-39.901091z m219.426909-279.272727A39.901091 39.901091 0 0 1 791.272727 272.628364v79.790545a39.901091 39.901091 0 0 1-39.901091 39.889455H272.64A39.901091 39.901091 0 0 1 232.727273 352.418909v-79.790545A39.901091 39.901091 0 0 1 272.628364 232.727273H751.36z m-458.798545 79.790545a19.944727 19.944727 0 1 0 0 39.901091 19.944727 19.944727 0 0 0 0-39.901091z m79.790545 0a19.944727 19.944727 0 1 0 0 39.901091 19.944727 19.944727 0 0 0 0-39.901091z" fill="#FFFFFF" p-id="2558"></path></svg>