<svg t="1684562716410" class="icon" viewBox="0 0 1024 1024" version="1.1" xmlns="http://www.w3.org/2000/svg" p-id="1057" width="200" height="200"><path d="M1024 512c0 282.7776-229.2224 512-512 512S0 794.7776 0 512 229.2224 0 512 0s512 229.2224 512 512z" fill="#2962FF" p-id="1058"></path><path d="M493.5936 234.9056a39.3984 39.3984 0 0 1 36.608 0l1.9584 1.024 1.6384 1.536 243.7376 224.512a45.4144 45.4144 0 0 1 13.7344 49.024 36.8896 36.8896 0 0 1-35.6096 23.168H704V716.8a51.2 51.2 0 0 1-51.2 51.2h-76.8v-115.2a64 64 0 0 0-128 0v115.2h-76.8a51.2 51.2 0 0 1-51.2-51.2V534.1696h-54.2336a36.6336 36.6336 0 0 1-33.024-23.552 44.9536 44.9536 0 0 1 13.9136-48.896l244.992-225.792z" fill="#FFFFFF" p-id="1059"></path></svg>