<svg t="1645002087981" class="icon" viewBox="0 0 1024 1024" version="1.1" xmlns="http://www.w3.org/2000/svg" p-id="8075"
  width="200" height="200">
  <path
    d="M921.1392 155.392h-270.592v-48.2816c0-22.7328-18.432-41.1648-41.1648-41.1648H426.3424a41.1648 41.1648 0 0 0-41.1648 41.1648v48.2816H110.6432c-14.1312 0-25.6 11.4688-25.6 25.6s11.4688 25.6 25.6 25.6h810.496c14.1312 0 25.6-11.4688 25.6-25.6s-11.4688-25.6-25.6-25.6zM170.8032 260.0448v592.8448c0 50.8928 41.2672 92.16 92.16 92.16h500.6848c50.8928 0 92.16-41.2672 92.16-92.16V260.0448H170.8032z m249.1392 462.7968c0 14.1312-11.4688 25.6-25.6 25.6s-25.6-11.4688-25.6-25.6V443.0848c0-14.1312 11.4688-25.6 25.6-25.6s25.6 11.4688 25.6 25.6v279.7568z m243.1488 0c0 14.1312-11.4688 25.6-25.6 25.6s-25.6-11.4688-25.6-25.6V443.0848c0-14.1312 11.4688-25.6 25.6-25.6s25.6 11.4688 25.6 25.6v279.7568z"
    fill="#FF623E" p-id="8076"></path>
</svg>