<svg t="1684563121008" class="icon" viewBox="0 0 1024 1024" version="1.1" xmlns="http://www.w3.org/2000/svg" p-id="1590" width="200" height="200"><path d="M512 26.54814777c268.1029211 0 485.45185223 217.34892999 485.45185223 485.45185223S780.1029211 997.45185223 512 997.45185223a483.30372779 483.30372779 0 0 1-249.31593443-68.83707335 3170.48604445 3170.48604445 0 0 0-22.8162378-13.38633443l-118.79006777 32.4039111c-27.18530333 7.40314112-52.11325667-17.53694777-44.69797888-44.71011555l32.35536555-118.65656889c-12.52465778-21.26279111-20.72879445-35.52293888-24.80659001-43.13239666A483.42508999 483.42508999 0 0 1 26.54814777 512C26.54814777 243.8970789 243.8970789 26.54814777 512 26.54814777z m0 667.49629668a36.40888889 36.40888889 0 1 0 0 72.81777777 36.40888889 36.40888889 0 0 0 0-72.81777777z m-2.86416555-424.77037c-55.08664889 0-105.52509667 27.48871111-134.95561557 72.1502811a155.97568 155.97568 0 0 0-18.18017109 37.81669888 36.40888889 36.40888889 0 0 0 69.29825109 22.40360335c2.29376-7.09973333 5.55842333-13.88392334 9.69690112-20.15838777C451.01511111 357.16513223 478.67372999 342.09185223 509.13583445 342.09185223 557.82665443 342.09185223 596.95407445 380.32118557 596.95407445 427.04592555s-39.13955555 84.95407445-87.83037667 84.95407445a36.40888889 36.40888889 0 0 0-36.40888889 36.40888889v72.81777778a36.40888889 36.40888889 0 0 0 72.81777778 0v-40.48668445C616.61487445 564.56229888 669.77185223 502.02396445 669.77185223 427.04592555c0-87.33278777-72.11387221-157.77185223-160.64815445-157.7718511z" fill="#FD6112" p-id="1591"></path></svg>