<svg t="1645151684066" class="icon" viewBox="0 0 1024 1024" version="1.1" xmlns="http://www.w3.org/2000/svg"
  p-id="22521" width="200" height="200">
  <path
    d="M46.661818 848.290909L46.545455 726.667636l85.154909-346.554181h766.301091a52.875636 52.875636 0 0 1 50.664727 67.84l-23.505455 79.499636-83.013818 333.591273a52.875636 52.875636 0 0 1-51.293091 40.145454H99.537455a52.945455 52.945455 0 0 1-52.875637-52.898909z"
    fill="#FFEBC0" p-id="22522"></path>
  <path
    d="M121.157818 446.533818L46.661818 726.109091V189.719273C46.661818 162.071273 68.608 139.636364 95.627636 139.636364h232.587637a48.011636 48.011636 0 0 1 34.583272 14.661818l100.282182 102.586182a9.565091 9.565091 0 0 0 6.912 2.955636H820.130909c26.973091 0 48.919273 22.481455 48.919273 50.129455v70.144H206.196364a88.645818 88.645818 0 0 0-84.992 66.466909l-0.069819-0.046546z"
    fill="#FFA000" p-id="22523"></path>
  <path
    d="M928.465455 420.189091H206.196364c-22.272 0.232727-41.658182 15.383273-47.220364 36.980364L61.300364 837.934545a51.037091 51.037091 0 0 0 8.354909 43.566546c9.122909 12.334545 23.528727 19.642182 38.865454 19.688727h722.269091a49.245091 49.245091 0 0 0 47.220364-36.980363l97.675636-380.765091a50.664727 50.664727 0 0 0-8.308363-43.566546 48.174545 48.174545 0 0 0-38.912-19.688727z"
    fill="#FFCA28" p-id="22524"></path>
  <path
    d="M594.850909 538.926545l155.810909 107.752728a15.872 15.872 0 0 1 0.093091 26.042182l-155.624727 108.846545a10.565818 10.565818 0 0 1-16.663273-8.680727v-57.646546h-221.323636a10.565818 10.565818 0 0 1-10.589091-10.565818l-0.209455-88.669091c0-4.747636 3.188364-8.913455 7.773091-10.193454l2.792727-0.418909h221.323637V547.607273a10.565818 10.565818 0 0 1 16.616727-8.657455z"
    fill="#FFFFFF" p-id="22525"></path>
</svg>