<svg t="1684653129939" class="icon" viewBox="0 0 1024 1024" version="1.1" xmlns="http://www.w3.org/2000/svg" p-id="2874" width="200" height="200"><path d="M0 0m349.090909 0l325.818182 0q349.090909 0 349.090909 349.090909l0 325.818182q0 349.090909-349.090909 349.090909l-325.818182 0q-349.090909 0-349.090909-349.090909l0-325.818182q0-349.090909 349.090909-349.090909Z" fill="#52B852" p-id="2875"></path><path d="M403.397818 298.554182h-86.213818A49.559273 49.559273 0 0 0 267.636364 347.997091v388.770909c0 27.229091 22.190545 49.454545 49.547636 49.454545h389.632A49.559273 49.559273 0 0 0 756.363636 736.756364v-388.770909c0-27.229091-22.190545-49.454545-49.547636-49.454546h-86.213818v4.887273c0 27.229091-21.992727 49.303273-49.28 49.303273H452.677818a49.291636 49.291636 0 0 1-49.28-49.303273v-4.887273z m235.531637 203.392L511.592727 647.703273c-3.397818 5.213091-10.181818 8.866909-17.722182 8.866909-5.899636 0-12.823273-1.547636-17.570909-5.957818L400.814545 586.472727c-9.984-9.890909-10.938182-24.040727-2.90909-35.141818 10.705455-10.984727 25.448727-11.729455 35.630545-3.258182l57.216 48.221091L601.6 469.178182c9.972364-10.100364 24.704-10.775273 34.885818-2.304 10.181818 10.228364 10.938182 24.994909 2.443637 35.083636zM430.545455 284.997818A40.576 40.576 0 0 1 471.202909 244.363636H552.727273a40.529455 40.529455 0 0 1 40.657454 40.634182 40.576 40.576 0 0 1-40.657454 40.645818h-81.524364A40.529455 40.529455 0 0 1 430.545455 284.997818z" fill="#FFFFFF" p-id="2876"></path></svg>