<svg t="1684562805352" class="icon" viewBox="0 0 1024 1024" version="1.1" xmlns="http://www.w3.org/2000/svg" p-id="1365" width="200" height="200"><path d="M1024 512c0 282.7776-229.2224 512-512 512S0 794.7776 0 512 229.2224 0 512 0s512 229.2224 512 512z" fill="#2962FF" p-id="1366"></path><path d="M760 433.1392a73.5744 73.5744 0 0 1-52.992-36.0576 74.7264 74.7264 0 0 1-5.0176-64.256 35.008 35.008 0 0 0-10.3296-39.168 276.3776 276.3776 0 0 0-82.5984-48.256 34.56 34.56 0 0 0-39.2448 10.9696A73.1904 73.1904 0 0 1 512 284.7872a73.1904 73.1904 0 0 1-57.8176-28.416 34.56 34.56 0 0 0-39.2448-10.9824 277.6064 277.6064 0 0 0-76.9664 43.5328 35.3792 35.3792 0 0 0-10.88 40.32 74.3296 74.3296 0 0 1-5.1712 66.2016 73.152 73.152 0 0 1-55.8464 35.2384 34.8416 34.8416 0 0 0-30.4128 28.1984 273.216 273.216 0 0 0-1.6896 97.472 34.8544 34.8544 0 0 0 30.592 29.3248 73.1776 73.1776 0 0 1 56.576 36.5952 74.3424 74.3424 0 0 1 3.1232 67.6864 34.624 34.624 0 0 0 9.5744 41.2544 278.4256 278.4256 0 0 0 81.856 47.5008c3.8016 1.3312 7.808 2.048 11.8272 2.0864a34.4576 34.4576 0 0 0 28.16-14.7584 72.4864 72.4864 0 0 1 60.0704-31.7952 73.3952 73.3952 0 0 1 58.9568 29.9008c9.344 12.672 25.9968 17.408 40.5504 11.5456a281.1392 281.1392 0 0 0 75.0848-45.2352 35.2 35.2 0 0 0 10.1376-39.936c-8.9472-21.3632-7.424-45.7216 4.1344-65.792a73.1904 73.1904 0 0 1 54.6304-36.224 34.8544 34.8544 0 0 0 29.4784-28.7616c3.008-15.7824 4.6464-31.808 4.8768-47.872 0-16.96-1.5616-33.8816-4.6976-50.5344a34.4832 34.4832 0 0 0-28.9024-28.1984z m-154.1376 78.72c0 52.2752-42.0224 94.6304-93.8624 94.6304-51.84 0-93.8624-42.368-93.8624-94.6176 0-52.2624 42.0224-94.6304 93.8624-94.6304 51.84 0 93.8624 42.368 93.8624 94.6304z" fill="#FFFFFF" p-id="1367"></path></svg>