<svg t="1684652892745" class="icon" viewBox="0 0 1024 1024" version="1.1" xmlns="http://www.w3.org/2000/svg" p-id="2397" width="200" height="200"><path d="M0 0m349.090909 0l325.818182 0q349.090909 0 349.090909 349.090909l0 325.818182q0 349.090909-349.090909 349.090909l-325.818182 0q-349.090909 0-349.090909-349.090909l0-325.818182q0-349.090909 349.090909-349.090909Z" fill="#F7A647" p-id="2398"></path><path d="M663.272727 244.363636a46.545455 46.545455 0 0 1 46.545455 46.545455v84.026182L465.501091 619.264a64 64 0 0 0-2.024727 88.389818l2.024727 2.117818a64 64 0 0 0 88.389818 2.024728l2.117818-2.024728L709.818182 555.950545V733.090909a46.545455 46.545455 0 0 1-46.545455 46.545455H279.272727a46.545455 46.545455 0 0 1-46.545454-46.545455V290.909091a46.545455 46.545455 0 0 1 46.545454-46.545455h384z m108.101818 160.046546a29.090909 29.090909 0 0 1 0.93091 39.633454l-1.44291 1.512728-238.545454 232.727272a29.090909 29.090909 0 0 1-42.065455-40.145454l1.431273-1.512727 238.545455-232.727273a29.090909 29.090909 0 0 1 41.134545 0.512zM401.454545 581.818182H314.181818l-1.745454 0.058182A23.272727 23.272727 0 0 0 314.181818 628.363636h87.272727l1.745455-0.058181A23.272727 23.272727 0 0 0 401.454545 581.818182z m64-110.545455H314.181818l-1.745454 0.058182A23.272727 23.272727 0 0 0 314.181818 517.818182h151.272727l1.745455-0.058182A23.272727 23.272727 0 0 0 465.454545 471.272727z m58.181819-116.363636H314.181818l-1.745454 0.058182A23.272727 23.272727 0 0 0 314.181818 401.454545h209.454546l1.745454-0.058181A23.272727 23.272727 0 0 0 523.636364 354.909091z" fill="#FFFFFF" p-id="2399"></path></svg>