<svg t="1684653015168" class="icon" viewBox="0 0 1024 1024" version="1.1" xmlns="http://www.w3.org/2000/svg" p-id="2715" width="200" height="200"><path d="M0 0m349.206261 0l325.587478 0q349.206261 0 349.206261 349.206261l0 325.587478q0 349.206261-349.206261 349.206261l-325.587478 0q-349.206261 0-349.206261-349.206261l0-325.587478q0-349.206261 349.206261-349.206261Z" fill="#F96C17" p-id="2716"></path><path d="M649.026783 536.242087C714.462609 536.242087 768 590.825739 768 657.552696c0 66.715826-53.537391 121.310609-118.973217 121.310608-65.446957 0-118.973217-54.594783-118.973218-121.321739 0-66.704696 53.504-121.299478 118.984348-121.299478zM667.614609 256c21.481739 0.066783 38.845217 17.786435 38.92313 39.68v222.130087c-17.842087-9.104696-38.66713-12.132174-59.492174-12.132174-83.277913 0-148.702609 66.715826-148.702608 151.641044 0 33.357913 11.887304 66.715826 29.729391 90.980173H294.912c-21.459478-0.066783-38.845217-17.786435-38.912-39.68v-412.93913c0.066783-21.893565 17.452522-39.624348 38.912-39.68h372.713739z m-2.270609 337.385739l-1.558261 1.78087c-3.962435 4.006957-9.282783 6.433391-15.170782 6.433391a21.292522 21.292522 0 0 1-15.237566-6.500174l-1.491478-1.714087c-2.070261-2.370783-6.110609-3.428174-8.97113-2.31513l-0.222609 0.089043c-0.723478 0.311652-3.328 1.513739-8.236522 4.518957l-0.500869 0.311652c-5.509565 3.450435-7.457391 5.231304-7.457392 5.231304-2.31513 2.092522-3.472696 6.322087-2.582261 9.449739l0.634435 2.259479a25.110261 25.110261 0 0 1-2.348522 17.330087c-2.949565 5.465043-7.635478 9.193739-12.877913 10.852173l-2.137043 0.512c-2.949565 0.712348-5.832348 3.917913-6.377739 7.123479 0 0-0.467478 2.782609-0.478609 9.828174v0.300521c0 7.268174 0.478609 10.128696 0.478609 10.128696 0.545391 3.205565 3.405913 6.41113 6.377739 7.123478l2.081391 0.512c5.253565 1.669565 9.961739 5.376 12.911305 10.874435a25.043478 25.043478 0 0 1 2.348521 17.363478l-0.612174 2.203826c-0.890435 3.094261 0.26713 7.346087 2.593392 9.472 0 0 2.025739 1.836522 7.724521 5.36487l0.256 0.155826c5.197913 3.216696 7.791304 4.34087 8.325566 4.563478l0.044521 0.022261 0.055653 0.022261c2.871652 1.113043 6.878609 0.055652 8.97113-2.31513l1.469217-1.691826c3.984696-4.029217 9.349565-6.489043 15.248696-6.489044 5.921391 0 11.308522 2.482087 15.259826 6.522435l1.480348 1.680696c2.05913 2.381913 6.099478 3.439304 8.96 2.32626 0 0 2.57113-1.001739 8.45913-4.608 5.89913-3.639652 7.94713-5.520696 7.947131-5.520695 2.337391-2.092522 3.483826-6.355478 2.604522-9.472l-0.645566-2.29287a24.954435 24.954435 0 0 1 2.359653-17.285565c2.938435-5.453913 7.646609-9.20487 12.900173-10.863304l2.081392-0.523131c2.949565-0.712348 5.843478-3.917913 6.377739-7.123478 0 0 0.478609-2.860522 0.478609-10.128696-0.022261-6.678261-0.434087-9.650087-0.50087-10.095304v-0.055652c-0.545391-3.172174-3.405913-6.41113-6.377739-7.123479l-2.226087-0.545391a22.394435 22.394435 0 0 1-12.8-10.818782 25.043478 25.043478 0 0 1-2.348522-17.363479l0.701218-2.226087c0.879304-3.094261-0.278261-7.357217-2.604522-9.472 0 0-2.081391-1.892174-7.969391-5.520695-5.89913-3.606261-8.43687-4.608-8.43687-4.608-2.860522-1.113043-6.878609-0.055652-8.96 2.31513z m-16.740174 31.376696a34.148174 34.148174 0 0 1 34.125913 34.148174 34.170435 34.170435 0 0 1-34.125913 34.114782 34.125913 34.125913 0 1 1 0-68.262956z m-36.340869-289.636174h-57.6c-11.52 0-19.2 7.312696-19.2 18.287304s7.68 18.287304 19.2 18.287305h11.52l-55.674435 53.025391-69.12-65.825391a21.281391 21.281391 0 0 0-13.445565-5.487305c-5.754435 0-9.594435 1.825391-15.36 5.487305l-80.64 76.8c-7.68 7.312696-7.68 18.287304 0 25.6 7.68 7.312696 19.2 7.312696 26.88 0l69.12-64 67.205565 64c3.84 3.650783 9.594435 5.487304 15.36 5.487304 5.754435 0 9.594435-1.836522 15.36-5.487304l67.194435-64v10.974608c0 10.963478 7.68 18.276174 19.2 18.276174 11.52 0 19.2-9.138087 19.2-18.276174v-54.861913c0-10.974609-9.594435-18.287304-19.2-18.287304z" fill="#FFFFFF" p-id="2717"></path></svg>