<svg viewBox="0 0 48 48" fill="none" stroke="currentColor" stroke-width="4"><path d="M6 7h4v4H6V7zM6 23h4v4H6v-4zM6 38h4v4H6v-4zM14 15h4v4h-4v-4zM14 31h4v4h-4v-4zM22 7h4v4h-4V7zM22 23h4v4h-4v-4zM22 38h4v4h-4v-4zM30 15h4v4h-4v-4zM30 31h4v4h-4v-4zM38 7h4v4h-4V7zM38 23h4v4h-4v-4zM38 38h4v4h-4v-4z" fill="#4E5969"/><path d="M6 7h4v4H6V7zM6 23h4v4H6v-4zM6 38h4v4H6v-4zM14 15h4v4h-4v-4zM14 31h4v4h-4v-4zM22 7h4v4h-4V7zM22 23h4v4h-4v-4zM22 38h4v4h-4v-4zM30 15h4v4h-4v-4zM30 31h4v4h-4v-4zM38 7h4v4h-4V7zM38 23h4v4h-4v-4zM38 38h4v4h-4v-4z"/></svg>