<svg viewBox="0 0 48 48" fill="none" stroke="currentColor" stroke-width="4"><path d="M13 24h30M13 37h30M13 11h30"/><path fill-rule="evenodd" clip-rule="evenodd" d="M5.578 13.06v1.694h5.041V13.06H9.164V7.555H7.748L5.256 8.967l.762 1.514 1.114-.637v3.215H5.578zM5.37 26.204v1.491h5.071V26H7.963l.94-.94c.454-.44.784-.86.982-1.258.199-.404.299-.826.299-1.266 0-.686-.225-1.225-.684-1.6-.45-.372-1.092-.55-1.911-.55-.473 0-.934.072-1.38.214a3.63 3.63 0 00-1.133.582l-.067.052.653 1.534.112-.085c.263-.199.524-.345.783-.44.267-.095.525-.141.774-.141.31 0 .52.06.653.164.127.1.198.252.198.478 0 .176-.05.356-.154.54l-.002.002c-.099.186-.273.416-.528.69L5.37 26.205zM10.382 38.344c0-.443-.118-.827-.359-1.145a1.702 1.702 0 00-.712-.56 1.656 1.656 0 00.586-.52 1.73 1.73 0 00.306-1.023c0-.403-.108-.762-.326-1.073a2.076 2.076 0 00-.918-.71c-.386-.166-.834-.247-1.34-.247-.48 0-.953.07-1.418.212-.458.135-.835.319-1.127.555l-.065.053.652 1.486.11-.077c.276-.192.563-.339.863-.44l.002-.002c.3-.108.582-.161.844-.161.267 0 .454.065.58.179l.003.003c.129.107.198.262.198.48 0 .201-.07.33-.197.412-.138.088-.375.141-.733.141h-1.01v1.626H7.51c.37 0 .613.056.75.15.126.085.199.23.199.463 0 .254-.077.411-.21.503l-.002.001c-.135.098-.386.158-.777.158-.594 0-1.194-.2-1.8-.605l-.11-.073-.65 1.483.064.053c.285.236.663.423 1.127.565h.002c.466.135.951.203 1.456.203.852 0 1.538-.178 2.045-.546.517-.378.778-.896.778-1.544z" fill="#4E5969"/></svg>