<svg width="24" height="24" viewBox="0 0 48 48" fill="currentColor"><g clip-path="url(#svg_21cec257fe__clip0_0:2566)"><path fill-rule="evenodd" clip-rule="evenodd" d="M24.999.347l1.077.757c.083.059.162.123.234.194-.06-.06-.057-.064-.055-.067.001-.002-.003-.005-.035-.027l-.014-.01c.085.059.19.128.312.207.373.24.816.509 1.318.795a37.83 37.83 0 004.824 2.306c1.659.654 3.43 1.093 5.19 1.353.619.092 1.191.154 1.7.192.294.022.542.034.6.034l1.783.028a1.91 1.91 0 011.879 1.908l.001 1.837.002 4.38.001 2.61a24347.202 24347.202 0 01.002 8.072V25.63l-.001.046v.014c-.014 9.194-11.785 20.13-19.911 20.13C15.78 45.818 4 34.868 4 25.671V8.018a1.91 1.91 0 011.879-1.909l1.818-.028c.026 0 .275-.012.568-.034.509-.038 1.08-.1 1.7-.192 1.759-.26 3.53-.699 5.184-1.352a38.254 38.254 0 004.825-2.31c.844-.48 1.603-.968 1.755-1.084l1.068-.757a1.909 1.909 0 012.202-.005zm14.999 16.499l-.001-2.61-.002-4.339c-.531-.012-1.565-.096-2.703-.264-2.03-.3-4.078-.808-6.033-1.58-3.093-1.22-6.283-2.988-7.356-3.804-.344.244-1.157.759-2.04 1.261a42.053 42.053 0 01-5.31 2.544c-1.953.77-4 1.278-6.03 1.579-1.159.17-2.21.255-2.705.265v15.774C7.818 32.695 17.828 42 23.906 42c6.082 0 16.093-9.304 16.093-16.328v-.757-1.999l-.001-6.07zM32 18c0 3.728-2.55 6.86-6 7.748V28h3a1 1 0 011 1v2a1 1 0 01-1 1h-3v3a1 1 0 01-1 1h-2a1 1 0 01-1-1v-9.252A8 8 0 1132 18zm-8 4a4 4 0 110-8 4 4 0 010 8z" fill="currentColor"/></g><defs><clipPath id="svg_21cec257fe__clip0_0:2566"><path fill="currentColor" d="M0 0h48v48H0z"/></clipPath></defs></svg>