<svg width="24" height="24" viewBox="0 0 36 36" fill="none"><circle cx="18" cy="18" r="18" fill="url(#svg_1300b2c8f8__paint0_linear_0:785)"/><path fill-rule="evenodd" clip-rule="evenodd" d="M21.792 13.04c0 1.401-.546 2.67-1.428 3.583.445.087.884.199 1.313.334-.88 1.037-1.415 2.424-1.415 4.008 0 1.349 1.036 3.022 2.298 4.56-1.394.255-3.267.475-5.582.475-4.39 0-7.19-.791-8.148-1.113a.472.472 0 01-.318-.525c.198-1.3 1.078-5.483 4.337-6.887.393-.17.789-.318 1.185-.447a5.118 5.118 0 01-1.87-3.988c0-2.783 2.155-5.04 4.814-5.04 2.659 0 4.814 2.257 4.814 5.04z" fill="#fff"/><path fill-rule="evenodd" clip-rule="evenodd" d="M25.496 25.818C24.42 24.902 22 22.642 22 20.846 22 18.538 23.6 17 26 17s4 1.923 4 3.846c0 1.506-2.452 3.955-3.517 4.947a.739.739 0 01-.987.025zm.508-3.345c.828 0 1.5-.688 1.5-1.538 0-.85-.672-1.538-1.5-1.538s-1.5.688-1.5 1.538c0 .85.672 1.539 1.5 1.539z" fill="#fff"/><defs><linearGradient id="svg_1300b2c8f8__paint0_linear_0:785" x1="-6.027" y1="16.545" x2="17.227" y2="42.116" gradientUnits="userSpaceOnUse"><stop stop-color="#5ED1D1"/><stop offset="1" stop-color="#39C4C4"/></linearGradient></defs></svg>