<svg viewBox="0 0 48 48" fill="none" stroke="currentColor" stroke-width="4"><path d="M18.797 6.732A1 1 0 0119.76 6h8.48a1 1 0 01.963.732l1.286 4.628a1 1 0 001.213.7l4.65-1.2a1 1 0 011.117.468l4.24 7.344a1 1 0 01-.153 1.2L38.192 23.3a1 1 0 000 1.402l3.364 3.427a1 1 0 01.153 1.2l-4.24 7.344a1 1 0 01-1.116.468l-4.65-1.2a1 1 0 00-1.214.7l-1.286 4.628a1 1 0 01-.963.732h-8.48a1 1 0 01-.963-.732L17.51 36.64a1 1 0 00-1.213-.7l-4.65 1.2a1 1 0 01-1.116-.468l-4.24-7.344a1 1 0 01.152-1.2L9.81 24.7a1 1 0 000-1.402l-3.365-3.427a1 1 0 01-.152-1.2l4.24-7.344a1 1 0 011.116-.468l4.65 1.2a1 1 0 001.213-.7l1.286-4.628z"/><path d="M30 24a6 6 0 11-12 0 6 6 0 0112 0z"/></svg>