<svg viewBox="0 0 48 48" fill="none" stroke="currentColor" stroke-width="4"><circle cx="24" cy="24" r="9" fill="#4E5969"/><path d="M21 5.5a.5.5 0 01.5-.5h5a.5.5 0 01.5.5v5a.5.5 0 01-.5.5h-5a.5.5 0 01-.5-.5v-5zM21 37.5a.5.5 0 01.5-.5h5a.5.5 0 01.5.5v5a.5.5 0 01-.5.5h-5a.5.5 0 01-.5-.5v-5zM42.5 21a.5.5 0 01.5.5v5a.5.5 0 01-.5.5h-5a.5.5 0 01-.5-.5v-5a.5.5 0 01.5-.5h5zM10.5 21a.5.5 0 01.5.5v5a.5.5 0 01-.5.5h-5a.5.5 0 01-.5-.5v-5a.5.5 0 01.5-.5h5zM39.203 34.96a.5.5 0 010 .707l-3.536 3.536a.5.5 0 01-.707 0l-3.535-3.536a.5.5 0 010-.707l3.535-3.535a.5.5 0 01.707 0l3.536 3.535zM16.575 12.333a.5.5 0 010 .707l-3.535 3.535a.5.5 0 01-.707 0L8.797 13.04a.5.5 0 010-.707l3.536-3.536a.5.5 0 01.707 0l3.535 3.536zM13.04 39.203a.5.5 0 01-.707 0l-3.536-3.536a.5.5 0 010-.707l3.536-3.535a.5.5 0 01.707 0l3.536 3.535a.5.5 0 010 .707l-3.536 3.536zM35.668 16.575a.5.5 0 01-.708 0l-3.535-3.535a.5.5 0 010-.707l3.535-3.536a.5.5 0 01.708 0l3.535 3.536a.5.5 0 010 .707l-3.535 3.535z" fill="#4E5969"/></svg>