<svg viewBox="0 0 48 48" fill="none" stroke="currentColor" stroke-width="4"><circle cx="24" cy="24" r="7"/><path stroke="#4E5969" stroke-width="4" d="M23 7h2v2h-2zM23 39h2v2h-2zM41 23v2h-2v-2zM9 23v2H7v-2zM36.728 35.314l-1.415 1.414-1.414-1.414 1.414-1.415zM14.1 12.687L12.686 14.1l-1.414-1.414 1.414-1.414zM12.687 36.728l-1.414-1.414 1.414-1.415 1.414 1.415zM35.315 14.1L33.9 12.686l1.414-1.414 1.414 1.414z"/><path fill="#4E5969" d="M23 7h2v2h-2zM23 39h2v2h-2zM41 23v2h-2v-2zM9 23v2H7v-2zM36.728 35.314l-1.415 1.414-1.414-1.414 1.414-1.415zM14.1 12.687L12.686 14.1l-1.414-1.414 1.414-1.414zM12.687 36.728l-1.414-1.414 1.414-1.415 1.414 1.415zM35.315 14.1L33.9 12.686l1.414-1.414 1.414 1.414z"/></svg>